<svg xmlns="http://www.w3.org/2000/svg" viewBox="0 0 1400 320" role="img" aria-label="AI Tools Cheatsheets">
  <defs>
    <linearGradient id="bg" x1="0%" y1="0%" x2="100%" y2="100%">
      <stop offset="0%" stop-color="#07111a" />
      <stop offset="55%" stop-color="#0d1d2c" />
      <stop offset="100%" stop-color="#111827" />
    </linearGradient>
    <linearGradient id="accent" x1="0%" y1="0%" x2="100%" y2="100%">
      <stop offset="0%" stop-color="#5eead4" />
      <stop offset="100%" stop-color="#60a5fa" />
    </linearGradient>
  </defs>
  <rect width="1400" height="320" rx="32" fill="url(#bg)" />
  <g opacity="0.18">
    <path d="M0 220h1400" stroke="#67e8f9" />
    <path d="M0 260h1400" stroke="#67e8f9" />
    <path d="M0 180h1400" stroke="#67e8f9" />
    <path d="M220 0v320" stroke="#67e8f9" />
    <path d="M340 0v320" stroke="#67e8f9" />
    <path d="M460 0v320" stroke="#67e8f9" />
  </g>
  <rect x="54" y="58" width="140" height="140" rx="28" fill="#0f172a" stroke="url(#accent)" stroke-width="4" />
  <path d="M96 163V94h22l17 27 17-27h22v69h-19v-37l-20 31h-1l-20-31v37H96z" fill="#eff6ff" />
  <path d="M138 216c22 0 45-6 62-20" stroke="#fbbf24" stroke-width="6" stroke-linecap="round" />
  <text x="240" y="124" fill="#f8fafc" font-size="66" font-weight="800" font-family="Segoe UI, Arial, sans-serif">AI Tools Cheatsheets</text>
  <text x="242" y="176" fill="#9fb2c8" font-size="28" font-family="Segoe UI, Arial, sans-serif">Codex · Claude Code · Cursor · Copilot · MCP · Grok</text>
  <text x="242" y="222" fill="#6ee7f9" font-size="26" font-family="Segoe UI, Arial, sans-serif">Open-source handbook for AI coding workflows, prompts, templates, and governance</text>
</svg>
