<svg xmlns="http://www.w3.org/2000/svg" viewBox="0 0 512 512">
  <defs>
    <linearGradient id="bg" x1="64" y1="56" x2="448" y2="456" gradientUnits="userSpaceOnUse">
      <stop offset="0" stop-color="#061018" />
      <stop offset="0.56" stop-color="#0d1e2f" />
      <stop offset="1" stop-color="#12283e" />
    </linearGradient>
    <linearGradient id="glow" x1="112" y1="112" x2="416" y2="416" gradientUnits="userSpaceOnUse">
      <stop offset="0" stop-color="#68e3e9" />
      <stop offset="1" stop-color="#49b8ff" />
    </linearGradient>
    <linearGradient id="spark" x1="274" y1="168" x2="370" y2="256" gradientUnits="userSpaceOnUse">
      <stop offset="0" stop-color="#ffd26f" />
      <stop offset="1" stop-color="#ffae3d" />
    </linearGradient>
    <style>
      @media (prefers-color-scheme: light) {
        .panel { fill: #f7fbff; }
        .rim { fill: #d6e7f7; }
        .letter { fill: #08192a; }
        .trace { stroke: rgba(8, 25, 42, 0.18); }
      }
    </style>
  </defs>
  <rect x="24" y="24" width="464" height="464" rx="128" fill="#051018" />
  <rect class="rim" x="38" y="38" width="436" height="436" rx="114" fill="url(#glow)" opacity="0.28" />
  <rect class="panel" x="50" y="50" width="412" height="412" rx="104" fill="url(#bg)" />
  <g class="trace" stroke="rgba(104, 227, 233, 0.14)" stroke-linecap="round" stroke-width="18">
    <path d="M122 372h64" />
    <path d="M326 144h56" />
    <path d="M356 196v56" />
    <path d="M138 150v46" />
    <path d="M122 150h46" />
  </g>
  <circle cx="382" cy="144" r="16" fill="#68e3e9" opacity="0.95" />
  <path class="letter" d="M164 352 238 150c6-16 29-16 35 0l75 202h-50l-15-44h-76l-15 44h-28Zm57-80h49l-25-74-24 74Z" fill="#eff5fb" />
  <path d="M304 206c26 0 48 21 48 48s-22 48-48 48" fill="none" stroke="url(#spark)" stroke-linecap="round" stroke-linejoin="round" stroke-width="26" />
  <circle cx="355" cy="254" r="12" fill="#ffca62" />
</svg>
